<?xml version="1.0" standalone="no"?>
<svg version="1.0" xmlns="http://www.w3.org/2000/svg"
 width="512.000000pt" height="512.000000pt" viewBox="0 0 512.000000 512.000000"
 preserveAspectRatio="xMidYMid meet">

<g transform="translate(0.000000,512.000000) scale(0.100000,-0.100000)"
fill="#ffffff" stroke="none">
<path d="M718 5110 c-295 -51 -529 -250 -632 -538 l-31 -87 -3 -1989 c-2
-1763 0 -1996 13 -2050 50 -193 192 -344 390 -413 108 -37 263 -39 370 -6 144
46 161 61 679 592 l481 493 329 -338 c181 -187 404 -413 495 -504 183 -183
231 -216 367 -250 376 -96 758 201 742 577 -3 73 -6 85 -34 120 -79 100 -210
109 -301 21 -34 -33 -48 -65 -58 -138 -11 -77 -25 -107 -65 -144 -65 -59 -157
-72 -227 -34 -24 14 -267 255 -587 584 -571 587 -578 594 -661 594 -83 0 -90
-7 -662 -594 -300 -308 -558 -569 -574 -579 -65 -43 -179 -29 -241 28 -63 58
-58 -102 -56 2027 l3 1943 32 65 c52 107 132 177 239 210 65 20 89 20 1259 20
1170 0 1194 0 1259 -20 64 -20 135 -66 183 -118 44 -48 84 -147 94 -230 13
-103 23 -133 62 -170 91 -88 222 -79 301 21 29 36 31 46 34 132 3 71 -1 113
-17 176 -70 276 -281 494 -561 581 l-75 23 -1250 1 c-687 1 -1271 -2 -1297 -6z"/>
<path d="M3580 3824 c-606 -75 -1081 -523 -1185 -1118 -20 -117 -20 -336 1
-457 123 -715 805 -1210 1521 -1103 141 20 258 56 380 114 401 191 684 562
758 994 31 180 16 435 -36 609 -103 346 -350 647 -668 811 -201 104 -362 145
-586 150 -82 3 -166 2 -185 0z m358 -418 c367 -90 639 -371 717 -739 31 -141
16 -356 -33 -497 -106 -305 -365 -538 -684 -615 -102 -25 -259 -30 -364 -11
-395 69 -696 358 -779 749 -19 88 -19 286 0 374 81 384 378 675 764 748 93 18
288 13 379 -9z"/>
<path d="M3645 3061 c-47 -22 -89 -64 -106 -106 -6 -16 -14 -85 -17 -152 l-5
-123 -116 0 c-129 0 -174 -14 -223 -66 -35 -38 -48 -74 -48 -134 0 -60 13 -96
48 -134 49 -52 94 -66 223 -66 l116 0 5 -122 c6 -134 15 -168 56 -212 61 -65
155 -83 232 -43 91 46 120 117 120 288 l0 89 118 0 c136 0 183 17 236 83 29
36 31 45 31 117 0 72 -2 81 -31 117 -53 66 -100 83 -236 83 l-118 0 0 89 c0
171 -29 242 -120 289 -54 27 -111 28 -165 3z"/>
</g>
</svg>
