<?xml version="1.0" standalone="no"?>
<svg version="1.0" xmlns="http://www.w3.org/2000/svg"
 width="512.000000pt" height="512.000000pt" viewBox="0 0 512.000000 512.000000"
 preserveAspectRatio="xMidYMid meet">

<g transform="translate(0.000000,512.000000) scale(0.100000,-0.100000)"
fill="#ffffff" stroke="none">
<path d="M766 4669 c-148 -51 -265 -169 -316 -318 -19 -57 -20 -84 -20 -526 0
-439 1 -468 19 -503 67 -131 231 -162 334 -64 63 60 62 46 67 529 5 407 6 444
23 460 16 17 53 18 460 23 483 5 469 4 529 67 98 103 67 267 -64 334 -35 18
-64 19 -505 19 -443 -1 -471 -2 -527 -21z"/>
<path d="M3325 4673 c-133 -70 -166 -233 -67 -336 60 -63 46 -62 529 -67 407
-5 444 -6 460 -23 17 -16 18 -53 23 -460 5 -483 4 -469 67 -529 110 -105 301
-55 343 89 8 26 10 184 8 508 -3 437 -4 473 -22 515 -63 148 -172 252 -314
299 -59 20 -83 21 -529 21 -407 -1 -472 -3 -498 -17z"/>
<path d="M560 1904 c-45 -20 -87 -59 -111 -106 -18 -35 -19 -64 -19 -503 0
-443 1 -469 21 -527 53 -158 196 -292 350 -327 26 -6 228 -11 499 -11 422 0
458 2 495 19 132 61 166 230 67 334 -60 63 -46 62 -529 67 -407 5 -444 6 -460
23 -17 16 -18 53 -23 460 -5 483 -4 469 -67 529 -58 56 -151 73 -223 42z"/>
<path d="M4400 1904 c-42 -18 -86 -58 -108 -99 -15 -26 -18 -85 -22 -472 -5
-407 -6 -444 -23 -460 -16 -17 -53 -18 -460 -23 -483 -5 -469 -4 -529 -67 -98
-103 -67 -267 64 -334 35 -18 64 -19 495 -19 272 0 476 5 502 11 162 37 323
198 360 360 6 26 11 230 11 502 0 431 -1 460 -19 495 -53 102 -172 149 -271
106z"/>
</g>
</svg>
