<?xml version="1.0" standalone="no"?>
<svg version="1.0" xmlns="http://www.w3.org/2000/svg"
 width="512.000000pt" height="512.000000pt" viewBox="0 0 512.000000 512.000000"
 preserveAspectRatio="xMidYMid meet">

<g transform="translate(0.000000,512.000000) scale(0.100000,-0.100000)"
fill="#ffffff" stroke="none">
<path d="M1725 5061 c-87 -22 -158 -77 -200 -152 l-30 -54 -3 -637 -3 -637
-632 -3 -632 -3 -47 -23 c-58 -29 -111 -80 -141 -135 -18 -35 -22 -58 -22
-137 0 -80 4 -102 23 -138 33 -62 96 -118 158 -142 53 -20 74 -20 849 -20 778
0 795 0 849 21 67 25 133 86 166 154 l25 50 0 810 c0 774 -1 812 -19 860 -25
64 -94 137 -155 164 -55 23 -141 34 -186 22z"/>
<path d="M3223 5050 c-64 -26 -131 -89 -163 -155 l-25 -50 0 -815 0 -815 24
-49 c31 -63 90 -122 150 -150 46 -21 48 -21 871 -21 l825 0 50 27 c60 31 104
77 136 138 34 65 34 195 0 260 -32 61 -76 107 -136 138 l-50 27 -637 3 -638 3
-2 632 -3 632 -23 45 c-54 103 -143 161 -257 167 -53 2 -82 -2 -122 -17z"/>
<path d="M3237 2126 c-97 -35 -176 -124 -197 -221 -7 -34 -10 -309 -8 -840 3
-670 5 -795 18 -820 51 -104 110 -155 211 -181 111 -29 227 8 303 97 67 79 66
64 66 755 l0 623 633 3 632 3 50 27 c114 60 171 162 163 292 -8 120 -76 215
-184 256 -53 20 -73 20 -852 20 -644 -1 -804 -3 -835 -14z"/>
<path d="M220 2121 c-83 -26 -150 -82 -191 -161 -20 -37 -24 -60 -24 -130 0
-73 4 -92 27 -135 31 -60 77 -104 138 -136 l45 -24 638 -3 637 -3 0 -619 c0
-599 1 -621 20 -674 25 -66 85 -130 148 -159 72 -33 200 -31 268 5 59 31 108
84 138 147 21 46 21 53 21 861 l0 815 -25 50 c-33 68 -99 129 -166 154 -54 21
-70 21 -852 20 -438 0 -808 -4 -822 -8z"/>
</g>
</svg>
