<?xml version="1.0" standalone="no"?>
<svg version="1.0" xmlns="http://www.w3.org/2000/svg"
 width="512.000000pt" height="512.000000pt" viewBox="0 0 512.000000 512.000000"
 preserveAspectRatio="xMidYMid meet">

<g transform="translate(0.000000,512.000000) scale(0.100000,-0.100000)"
fill="#ffffff" stroke="none">
<path d="M4120 4701 c-92 -30 -174 -104 -206 -187 -18 -48 -19 -104 -19 -1954
0 -1850 1 -1906 19 -1954 24 -63 86 -130 151 -164 49 -26 54 -27 235 -27 173
0 188 1 232 23 60 30 120 90 150 150 l23 47 0 1925 0 1925 -23 47 c-30 60 -90
120 -150 150 -43 21 -62 23 -217 25 -93 1 -181 -2 -195 -6z"/>
<path d="M755 4685 c-5 -2 -29 -9 -52 -15 -110 -28 -225 -145 -263 -268 -20
-63 -20 -97 -20 -1836 0 -1157 4 -1786 11 -1815 47 -208 260 -350 465 -312 94
17 137 42 334 193 96 74 603 462 1125 862 523 401 969 747 992 769 146 141
162 393 34 555 -51 64 -2288 1783 -2382 1831 -56 28 -80 34 -150 37 -46 2 -88
2 -94 -1z"/>
</g>
</svg>
