<?xml version="1.0" encoding="UTF-8"?>
<svg version="1.1" xmlns="http://www.w3.org/2000/svg" width="512" height="512">
<path d="M0 0 C1.44025543 -0.01226624 1.44025543 -0.01226624 2.90960693 -0.02478027 C6.07547396 -0.04951756 9.24129655 -0.06611935 12.40722656 -0.08056641 C13.49249886 -0.08589008 14.57777115 -0.09121376 15.69593048 -0.09669876 C21.43920687 -0.1233782 27.1824619 -0.14277069 32.92578125 -0.15722656 C37.66686285 -0.17056706 42.40751421 -0.19843002 47.1484375 -0.23925781 C52.8871904 -0.2886685 58.62555307 -0.31335753 64.36450958 -0.32045364 C66.54449987 -0.32714894 68.72448203 -0.34232583 70.90435028 -0.36634445 C73.96273241 -0.39812395 77.01961969 -0.39801346 80.078125 -0.390625 C80.96781982 -0.40703033 81.85751465 -0.42343567 82.77416992 -0.44033813 C89.46406557 -0.37459642 94.72533749 1.45415389 100.29785156 5.19287109 C106.01801167 11.16616394 106.66458115 16.94340484 106.56738281 24.89599609 C106.10809401 30.51396345 104.51533723 34.15831684 100.35644531 37.97412109 C94.47218996 42.56882509 90.04755825 43.34332062 82.63891602 43.36645508 C81.75399979 43.37314209 80.86908356 43.3798291 79.95735168 43.38671875 C78.03396801 43.40077377 76.11056761 43.41266638 74.18715858 43.42266655 C71.13921196 43.43908291 68.09138835 43.46232323 65.04350281 43.48756409 C56.376802 43.55830753 47.71004993 43.61834214 39.04321289 43.66967773 C33.74232358 43.70155538 28.44157416 43.74285739 23.14079857 43.78987312 C21.12389848 43.80584549 19.10696617 43.81818894 17.09002113 43.82678032 C14.26112384 43.8390001 11.43255221 43.86317924 8.60375977 43.88989258 C7.77696716 43.89048172 6.95017456 43.89107086 6.09832764 43.89167786 C-1.63242372 43.98790403 -8.60548241 45.04457533 -14.70214844 50.19287109 C-21.70844754 58.88446917 -20.84864668 68.17860052 -20.83586121 78.88180542 C-20.83773079 80.28386532 -20.84003208 81.6859247 -20.84272653 83.08798325 C-20.84883259 86.93133336 -20.84871235 90.77466168 -20.84753215 94.61801553 C-20.84732785 98.76670939 -20.85284972 102.9153963 -20.85758972 107.06408691 C-20.86589002 115.18823755 -20.86864427 123.31238094 -20.8692021 131.43653546 C-20.8696775 138.04050716 -20.87173347 144.64447647 -20.87490273 151.24844742 C-20.88370719 169.97626028 -20.88832236 188.70406742 -20.88757225 207.43188237 C-20.88751232 208.94576661 -20.88751232 208.94576661 -20.88745117 210.49023438 C-20.88738985 212.00596895 -20.88738985 212.00596895 -20.88732729 213.55232443 C-20.88692076 229.93198723 -20.89649259 246.31162706 -20.91058954 262.69128321 C-20.92495351 279.51404452 -20.93185973 296.33679463 -20.93099576 313.15956223 C-20.93066383 322.60259924 -20.93340954 332.04561216 -20.94417381 341.48864365 C-20.95327902 349.5276665 -20.95545385 357.56665432 -20.94866439 365.60568009 C-20.94539945 369.70600776 -20.94534161 373.80626823 -20.95401764 377.90658951 C-20.96188453 381.6631808 -20.96044929 385.41965162 -20.95173351 389.17623998 C-20.94947431 391.17246858 -20.95702563 393.16870091 -20.96497315 395.16491497 C-20.9303271 404.18999038 -20.88936367 413.02872714 -14.70214844 420.19287109 C-8.36075221 425.19281812 -2.67311794 426.31602733 5.35493279 426.32150555 C7.15243377 426.32634222 7.15243377 426.32634222 8.9862479 426.3312766 C10.29401821 426.32972799 11.60178852 426.32817939 12.94918823 426.32658386 C14.35934737 426.32845285 15.76950598 426.33075391 17.17966378 426.33344918 C21.05000695 426.33956262 24.9203285 426.33943413 28.7906754 426.33825481 C32.96663448 426.33805069 37.14258663 426.34357061 41.31854248 426.34831238 C49.49797427 426.35661679 57.67739886 426.35936712 65.85683452 426.35992476 C72.50517511 426.36039998 79.15351333 426.36245503 85.80185318 426.36562538 C104.6513149 426.37443107 123.50077094 426.37904484 142.35023473 426.37829491 C143.36629301 426.37825495 144.38235129 426.378215 145.42919922 426.37817383 C146.95514736 426.37811251 146.95514736 426.37811251 148.51192273 426.37804995 C165.00225556 426.37764341 181.49256556 426.38721507 197.98289178 426.40131219 C214.9152278 426.41567299 231.84755268 426.42258255 248.77989495 426.42171842 C258.28607213 426.42138637 267.79222537 426.42413715 277.29839706 426.43489647 C285.39127145 426.44399751 293.48411104 426.44617994 301.57698832 426.43938705 C305.70553871 426.43611996 309.83402233 426.436072 313.96256638 426.4447403 C317.74381732 426.45259775 321.52494847 426.4511816 325.30619647 426.44245616 C327.31812402 426.44019297 329.33005526 426.44775571 331.34196842 426.45569581 C340.26775005 426.42159015 348.173403 426.20907211 355.29785156 420.19287109 C362.15820513 411.68232437 361.44659633 402.67799781 361.45556641 392.19262695 C361.46336514 390.19968238 361.47116795 388.20673782 361.47912431 386.21379387 C361.48681089 384.08249678 361.49220864 381.95120388 361.49708176 379.81989861 C361.50781138 375.36919647 361.52806693 370.91856898 361.55020142 366.46791077 C361.61196691 353.81596276 361.66617068 341.16402104 361.69921875 328.51196289 C361.71757321 321.51561035 361.74651222 314.51938484 361.78722346 307.52312571 C361.80826549 303.8252343 361.82374688 300.12750269 361.82603073 296.42954826 C361.82858003 292.30742742 361.8540541 288.18575201 361.88134766 284.0637207 C361.87834152 282.84329071 361.87533539 281.62286072 361.87223816 280.365448 C361.94492542 272.98972005 362.65052198 268.36966659 367.48535156 262.56787109 C373.50414607 257.48533351 378.66400115 255.47274749 386.62207031 255.81396484 C393.46782147 256.78336318 397.73575767 260.09437259 402.07128906 265.31396484 C404.81005486 269.50933538 405.54868424 273.17239281 405.55854797 278.14222717 C405.56563278 279.3349826 405.57271759 280.52773804 405.58001709 281.75663757 C405.57753967 283.05696426 405.57506226 284.35729095 405.57250977 285.69702148 C405.57685951 287.08714064 405.58204354 288.4772574 405.58799744 289.86737061 C405.60137765 293.6384482 405.60196668 297.4094255 405.59943414 301.1805222 C405.59836271 304.336017 405.60325273 307.49149166 405.60803956 310.64698213 C405.61913363 318.10036349 405.61957421 325.55369446 405.61352539 333.00708008 C405.60749936 340.67267995 405.61976183 348.33809563 405.64109546 356.00366408 C405.65877476 362.60093729 405.66470247 369.19815224 405.66145772 375.79544824 C405.6596531 379.72832298 405.66219733 383.66106665 405.67617226 387.59391975 C405.68884759 391.29992221 405.686716 395.00564077 405.67376137 398.7116394 C405.67030787 400.70123552 405.68150471 402.69084069 405.69332886 404.68040466 C405.58776599 422.92800336 399.24062802 438.99212766 386.73535156 452.38037109 C375.44774313 463.15412786 359.79284532 470.30119274 344.10225868 470.32709217 C342.84753152 470.33155001 341.59280435 470.33600786 340.30005515 470.34060079 C338.91021132 470.3405115 337.52036749 470.34032166 336.13052368 470.34004211 C334.65196968 470.34334265 333.17341659 470.34706862 331.69486463 470.35118359 C327.63055264 470.36119046 323.56625542 470.36491828 319.50193286 470.3675729 C315.11859178 470.37147995 310.73526235 470.38105813 306.35192871 470.38978577 C295.76430545 470.40954064 285.17668124 470.41961593 274.58904415 470.42851356 C269.60003571 470.43289875 264.61102833 470.43826503 259.62202072 470.44350243 C243.03130374 470.46051504 226.44058742 470.47500785 209.84986305 470.48225117 C205.54525374 470.48416099 201.24064444 470.48608133 196.93603516 470.48803711 C195.866176 470.48852085 194.79631685 470.48900459 193.69403772 470.48950299 C176.37416505 470.49779817 159.05436156 470.5231263 141.73451908 470.55561779 C123.94224172 470.58872264 106.14999948 470.60670309 88.35769117 470.60989541 C78.37225325 470.61205752 68.38691617 470.62076214 58.40150833 470.64635658 C49.8948658 470.66811054 41.38834859 470.67609102 32.8816814 470.6663898 C28.54561982 470.66185845 24.20981655 470.66366298 19.87379074 470.68315125 C15.89464952 470.70088003 11.91595319 470.69970743 7.9368066 470.68425395 C6.50667971 470.68189248 5.07652121 470.68612451 3.64644237 470.6980826 C-15.1360284 470.84525393 -31.77202699 465.60138021 -45.55761719 452.37255859 C-46.2653125 451.65326172 -46.97300781 450.93396484 -47.70214844 450.19287109 C-48.27578125 449.61794922 -48.84941406 449.04302734 -49.44042969 448.45068359 C-59.19046457 437.91963817 -64.8172081 423.11080393 -64.8335762 408.86585045 C-64.83741735 407.60728214 -64.84125849 406.34871382 -64.84521604 405.05200708 C-64.84443589 403.66303844 -64.84355712 402.27406984 -64.84259033 400.88510132 C-64.84517548 399.40354638 -64.84818906 397.92199214 -64.85159373 396.44043887 C-64.85964941 392.37259224 -64.86145251 388.30476328 -64.8621912 384.23690963 C-64.86404426 379.84819171 -64.87159288 375.4594829 -64.87832642 371.07077026 C-64.8919002 361.47558578 -64.897933 351.88040548 -64.90233707 342.28521299 C-64.90510118 336.29192358 -64.90933885 330.29863577 -64.91384125 324.30534744 C-64.92603279 307.70600422 -64.93633225 291.10666228 -64.93971634 274.50731468 C-64.93993591 273.4452041 -64.94015547 272.38309352 -64.94038169 271.28879777 C-64.94059997 270.22417061 -64.94081825 269.15954345 -64.94104314 268.06265485 C-64.9414866 265.90537667 -64.94193317 263.74809849 -64.94238281 261.59082031 C-64.94260424 260.52073973 -64.94282567 259.45065915 -64.94305381 258.34815188 C-64.94700088 241.01339672 -64.96445264 223.67868363 -64.98774233 206.34394471 C-65.01147003 188.53921976 -65.02391884 170.7345159 -65.02508426 152.92977488 C-65.02600023 142.93608409 -65.03173302 132.9424481 -65.04990387 122.94877243 C-65.065324 114.43805601 -65.07041404 105.92741134 -65.06216577 97.4166836 C-65.05826601 93.07698017 -65.05915582 88.73742114 -65.07322311 84.3977356 C-65.08600251 80.41885364 -65.08472932 76.44022398 -65.0726324 72.46134217 C-65.07068237 71.02793688 -65.07372151 69.59451346 -65.08247676 68.16113357 C-65.1929018 48.84780385 -59.44993406 32.06198335 -45.95214844 17.94287109 C-32.98567144 5.62081238 -17.70541698 0.08401076 0 0 Z " fill="#ffffff" transform="translate(85.7021484375,20.80712890625)"/>
<path d="M0 0 C1.31677734 -0.07347656 1.31677734 -0.07347656 2.66015625 -0.1484375 C11.1776021 1.21191738 18.74349287 7.02606198 25.72265625 11.8203125 C27.07259926 12.73609573 27.07259926 12.73609573 28.44981384 13.67037964 C31.30380676 15.60788032 34.1521554 17.55347629 37 19.5 C40.7390141 22.04702813 44.48033668 24.59064402 48.22265625 27.1328125 C49.13769928 27.75496643 50.05274231 28.37712036 50.99551392 29.01812744 C57.2657706 33.27097767 63.58988914 37.42922796 69.96405029 41.52430725 C74.39628409 44.37227362 78.79821601 47.26013187 83.17578125 50.19140625 C89.11251665 54.16588485 95.07214527 58.10425699 101.04296875 62.02734375 C112.35243677 69.45950659 123.65001431 76.90949286 134.9375 84.375 C135.73422119 84.90158203 136.53094238 85.42816406 137.35180664 85.97070312 C141.44409112 88.67689834 145.52995416 91.39217084 149.60366821 94.12625122 C150.76949441 94.90699705 151.93739629 95.68465376 153.10751343 96.45895386 C161.68411731 102.13993238 168.30934378 107.04432441 170.9375 117.375 C171.72875391 123.47895874 170.15088472 129.16432352 166.9375 134.375 C162.18150649 139.04212357 156.69055694 142.71881173 151.14453125 146.3671875 C150.31725021 146.91682159 149.48996918 147.46645569 148.63761902 148.03274536 C146.01129725 149.77622794 143.38077155 151.51324099 140.75 153.25 C139.00427037 154.40711933 137.25882523 155.56466798 135.51367188 156.72265625 C132.14210982 158.95895349 128.76927122 161.19330021 125.39501953 163.42553711 C116.86867178 169.06650436 108.37304473 174.75056536 99.90625 180.48046875 C76.2930979 196.45985283 52.57583556 212.27061953 28.73130798 227.90283203 C25.19859585 230.22066431 21.67194948 232.54512883 18.17407227 234.9152832 C17.10858154 235.63675537 16.04309082 236.35822754 14.9453125 237.1015625 C14.06117676 237.70693848 13.17704102 238.31231445 12.26611328 238.93603516 C6.11365232 242.73794383 -0.12567856 242.90213606 -7.0625 241.375 C-12.83049531 239.41388159 -16.68833816 235.34058353 -20.0625 230.375 C-21.84348367 225.92254082 -22.30011067 222.22500545 -22.2578125 217.4453125 C-22.24814453 215.51171875 -22.24814453 215.51171875 -22.23828125 213.5390625 C-22.22157463 212.19270558 -22.20464479 210.84635141 -22.1875 209.5 C-22.17745664 208.13021483 -22.16833317 206.76042258 -22.16015625 205.390625 C-22.13664412 202.05190244 -22.1037793 198.71354239 -22.0625 195.375 C-42.47541786 200.61375479 -61.42923327 206.43472841 -80.0625 216.375 C-80.97926514 216.85839844 -80.97926514 216.85839844 -81.91455078 217.3515625 C-122.8129962 239.08749029 -153.27537385 278.27748589 -167.625 321.9375 C-170.38104124 330.22436698 -173.08939874 336.3568912 -180.78515625 341.02734375 C-184.5718154 342.58443244 -187.90217162 342.91319073 -191.9375 342.875 C-192.64495361 342.86855469 -193.35240723 342.86210937 -194.08129883 342.85546875 C-199.93167575 342.65045266 -203.99862744 341.65438096 -208.0625 337.375 C-220.95101877 320.93888389 -213.53482178 289.41410882 -211.25 270.2734375 C-209.20270619 254.38983131 -206.0294852 238.88369552 -202.0625 223.375 C-201.72677979 222.02946045 -201.72677979 222.02946045 -201.38427734 220.65673828 C-186.73932279 162.63471892 -152.92827566 107.51349804 -100.92602539 76.26611328 C-82.71025799 65.64008625 -63.5487684 58.4533869 -42.9375 54 C-42.21691406 53.84426514 -41.49632812 53.68853027 -40.75390625 53.52807617 C-34.56891139 52.29347996 -28.34800959 51.8142028 -22.0625 51.375 C-22.08606567 49.93833984 -22.08606567 49.93833984 -22.11010742 48.47265625 C-22.16479712 44.88696855 -22.19899047 41.301317 -22.22729492 37.71533203 C-22.2422933 36.16937032 -22.26269887 34.62345052 -22.28881836 33.07763672 C-22.59343047 14.57394434 -22.59343047 14.57394434 -16.75 7.625 C-11.39202667 3.13925488 -7.05727006 0.26401298 0 0 Z M21.9375 63.375 C21.91171875 64.20902344 21.8859375 65.04304688 21.859375 65.90234375 C21.46835588 73.66051852 20.94484126 81.0023783 15.48046875 86.96484375 C9.07846221 92.55646971 2.84526682 93.37552899 -5.37866211 93.66479492 C-36.25642617 94.77427085 -66.36293906 103.22858173 -91.0625 122.375 C-92.41794922 123.39980469 -92.41794922 123.39980469 -93.80078125 124.4453125 C-121.07739236 145.84028098 -138.07900997 174.74324882 -151.0625 206.375 C-151.46726563 207.26832031 -151.87203125 208.16164062 -152.2890625 209.08203125 C-153.35849209 211.49178164 -153.35849209 211.49178164 -152.0625 214.375 C-151.1653125 213.50359375 -150.268125 212.6321875 -149.34375 211.734375 C-117.64736844 181.31513702 -77.5673176 160.54230367 -34.0625 153.375 C-32.79535156 153.15199219 -31.52820313 152.92898437 -30.22265625 152.69921875 C-21.86051218 151.43065819 -13.51067517 151.09192769 -5.0625 150.9375 C-3.99950684 150.90301758 -2.93651367 150.86853516 -1.84130859 150.83300781 C5.07538824 150.79586239 9.59913293 151.87038729 14.9375 156.375 C21.55530676 163.16695957 21.38844327 171.40707345 21.9375 180.375 C32.59107574 173.69292135 43.06612938 166.73748353 53.5625 159.8125 C54.52361694 159.178815 55.48473389 158.54513 56.47497559 157.89224243 C74.33697984 146.11474046 92.15416964 134.27090815 109.9375 122.375 C105.62627001 118.78926366 101.06315961 115.67674412 96.4140625 112.5546875 C95.5714386 111.98643753 94.7288147 111.41818756 93.86065674 110.8327179 C91.09616666 108.96948032 88.32945354 107.10957694 85.5625 105.25 C83.64595709 103.96010027 81.72945364 102.67014191 79.81298828 101.38012695 C73.85773717 97.37357782 67.89835912 93.37319974 61.9375 89.375 C60.96949463 88.72565491 60.00148926 88.07630981 59.00415039 87.4072876 C53.47180563 83.69715218 47.93682371 79.99099881 42.39813232 76.29034424 C40.6744141 75.13847258 38.95114722 73.98592523 37.22833252 72.83270264 C34.83869167 71.23375135 32.44703227 69.63787063 30.0546875 68.04296875 C29.34322571 67.5662825 28.63176392 67.08959625 27.89874268 66.59846497 C25.13104279 64.37941498 25.13104279 64.37941498 21.9375 63.375 Z " fill="#ffffff" transform="translate(320.0625,41.625)"/>
</svg>
