<?xml version="1.0" standalone="no"?>
<svg version="1.0" xmlns="http://www.w3.org/2000/svg"
 width="512.000000pt" height="512.000000pt" viewBox="0 0 512.000000 512.000000"
 preserveAspectRatio="xMidYMid meet">

<g transform="translate(0.000000,512.000000) scale(0.100000,-0.100000)"
fill="#ffffff" stroke="none">
<path d="M2470 4675 c-21 -10 -236 -217 -550 -531 l-515 -514 -285 0 c-304 0
-379 -8 -461 -50 -54 -28 -142 -111 -173 -164 -57 -97 -56 -88 -56 -856 0
-768 -1 -759 56 -856 31 -53 119 -136 173 -164 82 -42 157 -50 461 -50 l284 0
521 -519 c567 -565 545 -547 655 -539 69 5 117 33 158 93 l27 40 0 1996 0
1996 -27 39 c-44 63 -90 88 -167 91 -44 2 -78 -2 -101 -12z"/>
<path d="M3821 4104 c-89 -45 -134 -140 -111 -235 9 -38 31 -70 106 -156 231
-263 368 -541 425 -859 30 -167 30 -421 0 -588 -57 -318 -194 -596 -425 -859
-75 -86 -97 -118 -106 -156 -23 -95 22 -190 111 -235 56 -28 101 -32 160 -16
107 30 359 347 495 624 205 418 266 899 173 1366 -46 231 -165 525 -289 715
-136 207 -306 395 -375 414 -63 17 -107 13 -164 -15z"/>
<path d="M3262 3521 c-57 -15 -108 -56 -136 -112 -46 -94 -32 -165 50 -260
160 -182 234 -368 234 -589 0 -221 -74 -407 -234 -589 -82 -95 -96 -166 -50
-260 45 -89 140 -134 237 -110 125 30 327 304 411 559 123 373 68 780 -151
1108 -67 101 -171 214 -216 236 -43 20 -103 27 -145 17z"/>
</g>
</svg>
